<svg xmlns="http://www.w3.org/2000/svg" viewBox="-2997 7611 41 41">
  <defs>
    <style>
      .cls-1 {
        fill: #515151;
      }
    </style>
  </defs>
  <g id="behance-logo-button" transform="translate(-2997 7611)">
    <g id="Group_221" data-name="Group 221">
      <g id="Group_220" data-name="Group 220">
        <path id="Path_418" data-name="Path 418" class="cls-1" d="M19.741,20.355c0-1.569-1.068-1.569-1.068-1.569H14.28v3.367H18.4C19.114,22.153,19.741,21.926,19.741,20.355Z" transform="translate(-2.488 -3.274)"/>
        <path id="Path_419" data-name="Path 419" class="cls-1" d="M32.661,22.864a2.7,2.7,0,0,0-2.655,2.324h4.956A2.245,2.245,0,0,0,32.661,22.864Z" transform="translate(-5.229 -3.984)"/>
        <path id="Path_420" data-name="Path 420" class="cls-1" d="M18.674,25.68H14.283v4.035h3.89c.066,0,.163,0,.28,0,.625-.016,1.813-.194,1.813-1.96C20.266,25.66,18.674,25.68,18.674,25.68Z" transform="translate(-2.489 -4.475)"/>
        <path id="Path_421" data-name="Path 421" class="cls-1" d="M20.5,0A20.5,20.5,0,1,0,41,20.5,20.523,20.523,0,0,0,20.5,0Zm3.628,13.72h6.225v1.859H24.128ZM20.98,23.467c0,4.605-4.794,4.455-4.794,4.455H8.334V12.831h7.851c2.387,0,4.271,1.319,4.271,4.019a2.619,2.619,0,0,1-2.3,2.871C21.189,19.72,20.98,23.467,20.98,23.467Zm11.647-.248H24.806a2.456,2.456,0,0,0,2.656,2.628c2.507,0,2.419-1.623,2.419-1.623H32.54c0,4.309-5.164,4.012-5.164,4.012a5.353,5.353,0,0,1-5.8-5.768s-.006-5.8,5.8-5.8C33.483,16.669,32.625,23.219,32.627,23.219Z"/>
      </g>
    </g>
  </g>
</svg>
