<?xml version="1.0" encoding="utf-8"?>
<!-- Generator: Adobe Illustrator 21.0.2, SVG Export Plug-In . SVG Version: 6.00 Build 0)  -->
<svg version="1.1" id="Layer_1" xmlns="http://www.w3.org/2000/svg" xmlns:xlink="http://www.w3.org/1999/xlink" x="0px" y="0px"
	 viewBox="0 0 41 41" style="enable-background:new 0 0 41 41;" xml:space="preserve">
<style type="text/css">
	.st0{fill:#4F4F4F;}
</style>
<g id="behance-logo-button" transform="translate(-2997 7611)">
	<g id="Group_221">
		<g id="Group_220">
			<path id="Path_418" class="st0" d="M3014.3-7593.9c0-1.6-1.1-1.6-1.1-1.6h-4.4v3.4h4.1
				C3013.6-7592.1,3014.3-7592.3,3014.3-7593.9z"/>
			<path id="Path_419" class="st0" d="M3024.4-7592.1c-1.3,0-2.5,1-2.7,2.3h5c0-1.2-0.9-2.3-2.2-2.3
				C3024.5-7592.1,3024.5-7592.1,3024.4-7592.1z"/>
			<path id="Path_420" class="st0" d="M3013.2-7589.8h-4.4v4h3.9c0.1,0,0.2,0,0.3,0c0.6,0,1.8-0.2,1.8-2
				C3014.8-7589.8,3013.2-7589.8,3013.2-7589.8z"/>
			<path id="Path_421" class="st0" d="M3017.5-7611c-11.3,0-20.5,9.2-20.5,20.5s9.2,20.5,20.5,20.5s20.5-9.2,20.5-20.5
				C3038-7601.8,3028.8-7611,3017.5-7611z M3021.1-7597.3h6.2v1.9h-6.2V-7597.3z M3018-7587.5c0,4.6-4.8,4.5-4.8,4.5h-7.9v-15.1h7.9
				c2.4,0,4.3,1.3,4.3,4c0.1,1.4-0.9,2.7-2.3,2.9C3018.2-7591.3,3018-7587.5,3018-7587.5z M3029.6-7587.8h-7.8
				c-0.1,1.4,0.9,2.5,2.3,2.6c0.1,0,0.3,0,0.4,0c2.5,0,2.4-1.6,2.4-1.6h2.7c0,4.3-5.2,4-5.2,4c-2.9,0.3-5.5-1.9-5.8-4.9
				c0-0.3,0-0.6,0-0.9c0,0,0-5.8,5.8-5.8C3030.5-7594.3,3029.6-7587.8,3029.6-7587.8z"/>
		</g>
	</g>
</g>
</svg>
