<?xml version="1.0" encoding="utf-8"?>
<!-- Generator: Adobe Illustrator 21.0.2, SVG Export Plug-In . SVG Version: 6.00 Build 0)  -->
<svg version="1.1" id="Layer_1" xmlns="http://www.w3.org/2000/svg" xmlns:xlink="http://www.w3.org/1999/xlink" x="0px" y="0px"
	 viewBox="0 0 41 41" style="enable-background:new 0 0 41 41;" xml:space="preserve">
<style type="text/css">
	.st0{fill:#4F4F4F;}
</style>
<g id="pencil" transform="translate(-2997.001 7371)">
	<g id="Group_218" transform="translate(0.001)">
		<path id="Path_415" class="st0" d="M3017.5-7371c-11.3,0-20.5,9.2-20.5,20.5s9.2,20.5,20.5,20.5s20.5-9.2,20.5-20.5
			S3028.8-7371,3017.5-7371z M3027.2-7356.2l-1.9,1.9l-4-4l-1.5,1.5l4,4l-9.7,9.7l-4-4l-1.5,1.5l4,4l-1,1l0,0
			c-0.1,0.2-0.3,0.3-0.5,0.4l-3.7,0.8c-0.4,0.1-0.8-0.2-0.9-0.6c0-0.1,0-0.2,0-0.3l0.8-3.7c0-0.2,0.2-0.4,0.4-0.5l0,0l15.6-15.6
			c0.2-0.2,0.6-0.2,0.8,0l3.1,3.1C3027.5-7356.9,3027.5-7356.5,3027.2-7356.2C3027.3-7356.2,3027.3-7356.2,3027.2-7356.2
			L3027.2-7356.2z"/>
	</g>
</g>
</svg>
