<svg xmlns="http://www.w3.org/2000/svg" viewBox="-180 5430 41 41">
  <defs>
    <style>
      .cls-1 {
        fill: #4a4a4a;
      }
    </style>
  </defs>
  <g id="pencil" transform="translate(-180.001 5430)">
    <g id="Group_102" data-name="Group 102" transform="translate(0.001)">
      <path id="Path_178" data-name="Path 178" class="cls-1" d="M20.5,0A20.5,20.5,0,1,0,41,20.5,20.5,20.5,0,0,0,20.5,0Zm9.745,14.753L28.3,16.7l-3.963-3.963-1.5,1.5L26.795,18.2l-9.721,9.721L13.11,23.961l-1.5,1.5,3.963,3.963L14.6,30.4l-.018-.018a.767.767,0,0,1-.49.352l-3.7.824a.768.768,0,0,1-.917-.918l.824-3.695a.77.77,0,0,1,.352-.49l-.019-.019L26.282,10.789a.588.588,0,0,1,.831,0l3.133,3.132A.588.588,0,0,1,30.246,14.753Z" transform="translate(-0.001)"/>
    </g>
  </g>
</svg>
