<svg xmlns="http://www.w3.org/2000/svg" viewBox="-180 5594 41 39.997">
  <defs>
    <style>
      .cls-1 {
        fill: #4a4a4a;
      }
    </style>
  </defs>
  <g id="github-logo" transform="translate(-180 5588.635)">
    <path id="Path_180" data-name="Path 180" class="cls-1" d="M38.25,15.575a20.411,20.411,0,0,0-7.46-7.461A20.051,20.051,0,0,0,20.5,5.365,20.053,20.053,0,0,0,10.21,8.114a20.408,20.408,0,0,0-7.461,7.461A20.052,20.052,0,0,0,0,25.864,19.923,19.923,0,0,0,3.91,37.916a20.077,20.077,0,0,0,10.1,7.407,1.2,1.2,0,0,0,1.068-.187,1.044,1.044,0,0,0,.347-.8q0-.08-.013-1.441T15.4,40.519l-.614.106a7.831,7.831,0,0,1-1.481.093,11.287,11.287,0,0,1-1.855-.187,4.145,4.145,0,0,1-1.788-.8A3.387,3.387,0,0,1,8.488,38.09l-.267-.614a6.67,6.67,0,0,0-.841-1.361A3.221,3.221,0,0,0,6.219,35.1l-.187-.134a1.96,1.96,0,0,1-.347-.321,1.464,1.464,0,0,1-.24-.374q-.08-.187.133-.307a1.731,1.731,0,0,1,.774-.119l.534.08a3.9,3.9,0,0,1,1.321.641A4.308,4.308,0,0,1,9.5,35.954a4.705,4.705,0,0,0,1.481,1.669,3.143,3.143,0,0,0,1.748.574,7.591,7.591,0,0,0,1.521-.133,5.309,5.309,0,0,0,1.2-.4,4.325,4.325,0,0,1,1.308-2.75,18.277,18.277,0,0,1-2.736-.481,10.894,10.894,0,0,1-2.509-1.041A7.186,7.186,0,0,1,9.368,31.6a8.594,8.594,0,0,1-1.4-2.8,13.328,13.328,0,0,1-.547-4,7.785,7.785,0,0,1,2.109-5.5,7.176,7.176,0,0,1,.187-5.445,3.74,3.74,0,0,1,2.3.36A16.049,16.049,0,0,1,14.24,15.24q.708.426,1.135.721a19.277,19.277,0,0,1,10.25,0l1.014-.64a14.365,14.365,0,0,1,2.455-1.175,3.5,3.5,0,0,1,2.163-.293A7.106,7.106,0,0,1,31.47,19.3a7.787,7.787,0,0,1,2.109,5.5,13.477,13.477,0,0,1-.547,4.017,8.26,8.26,0,0,1-1.414,2.8,7.462,7.462,0,0,1-2.163,1.775,10.914,10.914,0,0,1-2.509,1.041,18.258,18.258,0,0,1-2.736.481A4.754,4.754,0,0,1,25.6,38.7v5.632a1.063,1.063,0,0,0,.334.8,1.159,1.159,0,0,0,1.054.187,20.075,20.075,0,0,0,10.1-7.407A19.927,19.927,0,0,0,41,25.863,20.069,20.069,0,0,0,38.25,15.575Z"/>
  </g>
</svg>
