<?xml version="1.0" encoding="utf-8"?>
<!-- Generator: Adobe Illustrator 21.0.2, SVG Export Plug-In . SVG Version: 6.00 Build 0)  -->
<svg version="1.1" id="Layer_1" xmlns="http://www.w3.org/2000/svg" xmlns:xlink="http://www.w3.org/1999/xlink" x="0px" y="0px"
	 viewBox="0 0 41 40" style="enable-background:new 0 0 41 40;" xml:space="preserve">
<style type="text/css">
	.st0{fill:#4A4A4A;}
</style>
<g id="github-logo" transform="translate(-2997 7529.635)">
	<path id="Path_417" class="st0" d="M3035.2-7519.4c-1.8-3.1-4.4-5.7-7.5-7.5s-6.7-2.8-10.3-2.7c-3.6,0-7.2,0.9-10.3,2.7
		c-3.1,1.8-5.7,4.4-7.5,7.5s-2.8,6.7-2.7,10.3c0,4.3,1.3,8.6,3.9,12.1c2.5,3.5,6,6.1,10.1,7.4c0.4,0.1,0.8,0,1.1-0.2
		c0.2-0.2,0.4-0.5,0.3-0.8c0-0.1,0-0.5,0-1.4s0-1.7,0-2.4l-0.6,0.1c-0.5,0.1-1,0.1-1.5,0.1c-0.6,0-1.2-0.1-1.9-0.2s-1.3-0.4-1.8-0.8
		s-1-1-1.2-1.6l-0.3-0.6c-0.2-0.5-0.5-0.9-0.8-1.4c-0.3-0.4-0.7-0.8-1.2-1l-0.2-0.1c-0.1-0.1-0.2-0.2-0.3-0.3
		c-0.1-0.1-0.2-0.2-0.2-0.4c-0.1-0.1,0-0.2,0.1-0.3c0.2-0.1,0.5-0.1,0.8-0.1l0.5,0.1c0.5,0.1,0.9,0.3,1.3,0.6c0.5,0.4,1,0.8,1.3,1.4
		c0.4,0.7,0.9,1.2,1.5,1.7c0.5,0.4,1.1,0.6,1.7,0.6c0.5,0,1,0,1.5-0.1c0.4-0.1,0.8-0.2,1.2-0.4c0.1-1,0.6-2,1.3-2.8
		c-0.9-0.1-1.8-0.3-2.7-0.5s-1.7-0.6-2.5-1c-0.8-0.5-1.6-1.1-2.1-1.8c-0.6-0.8-1.1-1.8-1.4-2.8c-0.4-1.3-0.6-2.6-0.5-4
		c0-2,0.7-4,2.1-5.5c-0.7-1.8-0.6-3.7,0.2-5.4c0.8-0.1,1.6,0,2.3,0.4c0.8,0.3,1.5,0.6,2.2,1c0.5,0.3,0.9,0.5,1.1,0.7
		c3.4-0.9,6.9-0.9,10.2,0l1-0.6c0.8-0.5,1.6-0.9,2.5-1.2c0.7-0.3,1.4-0.4,2.2-0.3c0.8,1.7,0.9,3.7,0.2,5.4c1.4,1.5,2.2,3.5,2.1,5.5
		c0,1.4-0.2,2.7-0.5,4c-0.3,1-0.8,2-1.4,2.8c-0.6,0.7-1.3,1.3-2.2,1.8c-0.8,0.5-1.6,0.8-2.5,1s-1.8,0.4-2.7,0.5c1,1,1.5,2.4,1.4,3.8
		v5.6c0,0.3,0.1,0.6,0.3,0.8c0.3,0.2,0.7,0.3,1.1,0.2c4.1-1.3,7.6-3.9,10.1-7.4c2.6-3.5,4-7.7,3.9-12
		C3038-7512.8,3037.1-7516.3,3035.2-7519.4z"/>
</g>
</svg>
