<svg xmlns="http://www.w3.org/2000/svg" viewBox="-4181 7848 96.5 98.232">
  <defs>
    <style>
      .cls-1 {
        fill: #515151;
      }
    </style>
  </defs>
  <g id="newfavicon" transform="translate(-4181 7848)">
    <path id="Path_422" data-name="Path 422" class="cls-1" d="M22.678,0C35.2,0,45.355,11.948,45.355,26.686S35.2,53.373,22.678,53.373,0,41.425,0,26.686,10.153,0,22.678,0Z" transform="translate(25.573 22.43)"/>
    <path id="Path_423" data-name="Path 423" class="cls-1" d="M48.25,0C21.6,0,0,21.99,0,49.116S21.6,98.232,48.25,98.232,96.5,76.242,96.5,49.116,74.9,0,48.25,0Zm0,89.084c-20.843,0-37.741-17.907-37.741-39.968S27.407,9.148,48.25,9.148,85.991,27.055,85.991,49.116,69.093,89.084,48.25,89.084Z"/>
  </g>
</svg>
