<svg xmlns="http://www.w3.org/2000/svg" viewBox="-180 5507 41 41">
  <defs>
    <style>
      .cls-1 {
        fill: #4a4a4a;
      }
    </style>
  </defs>
  <g id="twitter" transform="translate(-180 5507)">
    <g id="Group_103" data-name="Group 103">
      <path id="Path_179" data-name="Path 179" class="cls-1" d="M20.5,0A20.5,20.5,0,1,0,41,20.5,20.5,20.5,0,0,0,20.5,0ZM30.7,15.9l.015.653a14.353,14.353,0,0,1-22.1,12.092,10.379,10.379,0,0,0,1.2.072,10.128,10.128,0,0,0,6.268-2.16,5.055,5.055,0,0,1-4.715-3.505,5.19,5.19,0,0,0,2.281-.087,5.052,5.052,0,0,1-4.049-4.948V17.95a5.04,5.04,0,0,0,2.286.633,5.055,5.055,0,0,1-1.563-6.737,14.324,14.324,0,0,0,10.4,5.274,5.051,5.051,0,0,1,8.6-4.6,10.221,10.221,0,0,0,3.206-1.225,5.061,5.061,0,0,1-2.219,2.793,10.118,10.118,0,0,0,2.9-.794A10.2,10.2,0,0,1,30.7,15.9Z"/>
    </g>
  </g>
</svg>
