<?xml version="1.0" encoding="utf-8"?>
<!-- Generator: Adobe Illustrator 21.0.2, SVG Export Plug-In . SVG Version: 6.00 Build 0)  -->
<svg version="1.1" id="Layer_1" xmlns="http://www.w3.org/2000/svg" xmlns:xlink="http://www.w3.org/1999/xlink" x="0px" y="0px"
	 viewBox="0 0 41 41" style="enable-background:new 0 0 41 41;" xml:space="preserve">
<style type="text/css">
	.st0{fill:#4A4A4A;}
</style>
<g id="twitter" transform="translate(-2997 7448)">
	<g id="Group_219">
		<path id="Path_416" class="st0" d="M3017.5-7448c-11.3,0-20.5,9.2-20.5,20.5s9.2,20.5,20.5,20.5s20.5-9.2,20.5-20.5
			S3028.8-7448,3017.5-7448z M3027.7-7432.1v0.7c0,7.9-6.4,14.4-14.3,14.4c-2.7,0-5.4-0.8-7.8-2.3c0.4,0,0.8,0.1,1.2,0.1
			c2.3,0,4.5-0.8,6.3-2.2c-2.2,0-4.1-1.4-4.7-3.5c0.8,0.1,1.5,0.1,2.3-0.1c-2.4-0.5-4-2.5-4-4.9v-0.1c0.7,0.4,1.5,0.6,2.3,0.6
			c-2.2-1.5-2.9-4.4-1.6-6.7c2.6,3.2,6.3,5.1,10.4,5.3c-0.6-2.7,1.1-5.4,3.8-6.1c1.8-0.4,3.6,0.2,4.8,1.5c1.1-0.2,2.2-0.6,3.2-1.2
			c-0.4,1.2-1.2,2.2-2.2,2.8c1-0.1,2-0.4,2.9-0.8C3029.5-7433.7,3028.7-7432.8,3027.7-7432.1z"/>
	</g>
</g>
</svg>
